<svg xmlns="http://www.w3.org/2000/svg" viewBox="0 0 21.874 21.874" enable-background="new 0 0 21.874 21.874"><g fill="#010002"><path d="M17.95.73c1.96 0 3.55 1.59 3.55 3.55s-1.59 3.55-3.55 3.55-3.55-1.59-3.55-3.55c0-1.96 1.59-3.55 3.55-3.55zm0 .634c-1.61 0-2.916 1.306-2.916 2.916s1.306 2.917 2.916 2.917 2.916-1.306 2.916-2.917c0-1.61-1.306-2.916-2.916-2.916zM17.95 8.205c-2.164 0-3.925-1.76-3.925-3.924 0-2.163 1.76-3.923 3.925-3.923s3.924 1.76 3.924 3.924c0 2.164-1.76 3.925-3.924 3.925zm0-6.466c-1.4 0-2.54 1.14-2.54 2.54 0 1.402 1.14 2.542 2.54 2.542s2.54-1.14 2.54-2.542c0-1.4-1.138-2.54-2.54-2.54zM14.74 17.987l-8.264-5.162.186-.314c.285-.482.436-1.04.436-1.606 0-.566-.15-1.123-.437-1.607l-.183-.316 8.27-5.166.033.636c.085 1.616 1.367 2.906 2.982 3l.354.02v6.934l-.354.02c-1.586.094-2.867 1.358-2.98 2.942l-.042.62zm-7.26-5.42l6.644 4.15c.356-1.56 1.645-2.767 3.242-3.006V8.16c-1.627-.24-2.92-1.472-3.255-3.064L7.48 9.24c.242.517.37 1.086.37 1.663-.002.58-.13 1.147-.37 1.664zM17.95 14.044c1.96 0 3.55 1.59 3.55 3.55s-1.59 3.548-3.55 3.548-3.55-1.59-3.55-3.55c0-1.96 1.59-3.548 3.55-3.548zm0 .632c-1.61 0-2.916 1.306-2.916 2.916s1.306 2.917 2.916 2.917 2.916-1.307 2.916-2.918-1.306-2.916-2.916-2.916zM17.95 21.518c-2.164 0-3.925-1.76-3.925-3.924s1.76-3.924 3.925-3.924 3.924 1.76 3.924 3.924-1.76 3.924-3.924 3.924zm0-6.466c-1.4 0-2.54 1.14-2.54 2.54s1.14 2.543 2.54 2.543 2.54-1.14 2.54-2.542-1.138-2.54-2.54-2.54zM3.924 7.355c1.96 0 3.55 1.59 3.55 3.55 0 1.958-1.59 3.548-3.55 3.548s-3.55-1.59-3.55-3.55 1.59-3.548 3.55-3.548zm0 .633c-1.61 0-2.916 1.306-2.916 2.916s1.306 2.916 2.916 2.916 2.916-1.306 2.916-2.916-1.306-2.916-2.916-2.916zM3.924 14.828C1.76 14.828 0 13.068 0 10.904 0 8.74 1.76 6.98 3.924 6.98c2.164 0 3.924 1.76 3.924 3.924 0 2.164-1.76 3.924-3.924 3.924zm0-6.465c-1.4 0-2.54 1.14-2.54 2.54s1.14 2.542 2.54 2.542 2.54-1.14 2.54-2.54-1.14-2.542-2.54-2.542z"/></g></svg>