<svg xmlns="http://www.w3.org/2000/svg" viewBox="0 0 21.677 21.677" enable-background="new 0 0 21.677 21.677"><g fill="#010002"><path d="M12.815 9.306c.32-.122.608-.253.86-.395V7.58h1.173c.005-.04.017-.08.017-.12v-3.93c0-1.48-3.328-2.683-7.432-2.683C3.328.845 0 2.047 0 3.53v3.928c0 1.483 3.328 2.685 7.433 2.685.994 0 1.94-.072 2.806-.2l1.606-1.603c0-.002.53.527.97.966zM1.493 3.528c0-1.186 2.66-2.145 5.94-2.145 3.28 0 5.938.96 5.938 2.145 0 1.186-2.658 2.146-5.937 2.146-3.28 0-5.94-.96-5.94-2.146zM10.466 12.835c.048-.13.102-.26.16-.386L9.38 11.202c-.622.06-1.273.096-1.948.096C3.507 11.3.3 10.197.027 8.806.015 8.87 0 8.933 0 8.997v3.93c0 1.482 3.328 2.685 7.433 2.685.335 0 .663-.01.987-.026v-2.75h2.046zM21.677 15.577v-1.714h-1.685c-.115-.61-.353-1.178-.688-1.673l1.188-1.188-1.212-1.21-1.188 1.187c-.496-.34-1.062-.573-1.674-.69V8.604h-1.713v1.683c-.61.12-1.176.354-1.67.69l-1.19-1.188L10.633 11l1.188 1.19c-.335.494-.572 1.06-.688 1.672H9.45v1.714h1.683c.117.608.353 1.178.688 1.673l-1.187 1.186 1.214 1.212 1.188-1.188c.495.336 1.062.572 1.67.69v1.682h1.714V19.15c.608-.117 1.177-.354 1.673-.69l1.188 1.188 1.214-1.212-1.188-1.187c.336-.496.572-1.064.688-1.674h1.683zm-6.115 1.012c-1.03 0-1.87-.838-1.87-1.87 0-1.033.84-1.87 1.87-1.87 1.032 0 1.87.837 1.87 1.87 0 1.032-.837 1.87-1.87 1.87z"/></g></svg>