<svg xmlns="http://www.w3.org/2000/svg" width="921" height="921" viewBox="0 0 921 921"><path d="M648.5 794.6c-23.5 44.5-51.2 79.5-82.1 104.2-6.8 5.5-13.7 10.3-20.8 14.7 98.5-18.4 186-68.1 251.7-138.4-6.1-3.7-12.5-7.3-19.1-10.8-29.8-15.8-63.102-29.1-99.102-39.6C670.2 749.4 660 772.9 648.5 794.6zM478 660c62.4 1.2 122.7 8.8 178.3 22.3 18.6-61.8 29.1-131.5 30.5-204.3H478v182zM478 902.5c22.8-3.5 45.1-13.9 66.6-31 27.2-21.7 51.7-53.1 73-93.3 10.3-19.4 19.5-40.4 27.6-62.6-52.1-12.4-108.6-19.4-167.2-20.6v207.5zM231 229.6c-37.8-11.2-73-25.2-104.5-41.9-9-4.8-17.7-9.7-26-14.9C40.8 247.4 3.8 340.9 0 443h199.2c1.5-75.8 12.4-148.5 31.8-213.4zM820.5 172.8c-8.3 5.1-16.9 10.1-26 14.9-31.5 16.7-66.7 30.7-104.5 41.9 19.4 64.9 30.3 137.6 31.8 213.4H921c-3.8-102.1-40.8-195.6-100.5-270.2zM376.4 871.5c21.4 17.1 43.8 27.5 66.6 31V695c-58.6 1.2-115.1 8.2-167.2 20.6 8.1 22.2 17.3 43.1 27.6 62.6 21.3 40.2 45.9 71.6 73 93.3zM443 660V478H234.2c1.5 72.8 12 142.5 30.5 204.3 55.6-13.4 115.9-21.1 178.3-22.3zM234.2 443H443V261c-62.4-1.2-122.7-8.8-178.3-22.3-18.5 61.8-29.1 131.5-30.5 204.3zM721.8 478c-1.5 75.8-12.4 148.5-31.8 213.4 37.8 11.2 73 25.2 104.5 41.9 9 4.8 17.7 9.7 26 14.9C880.2 673.6 917.2 580 921 478H721.8zM478 443h208.8c-1.5-72.8-12-142.5-30.5-204.3-55.6 13.5-115.9 21.1-178.3 22.3v182zM478 18.5V226c58.6-1.2 115.1-8.2 167.2-20.6-8.1-22.2-17.3-43.1-27.6-62.6-21.3-40.2-45.8-71.6-73-93.3-21.5-17.1-43.8-27.5-66.6-31zM123.7 145.9c6.1 3.7 12.5 7.3 19.1 10.8 29.8 15.8 63.1 29.1 99.1 39.6 8.9-24.8 19.1-48.2 30.6-69.9 23.5-44.5 51.2-79.5 82.1-104.2 6.8-5.5 13.7-10.3 20.8-14.7-98.5 18.4-186 68.1-251.7 138.4zM443 18.5c-22.8 3.5-45.1 13.9-66.6 31-27.2 21.7-51.7 53.1-73 93.3-10.3 19.4-19.5 40.4-27.6 62.6 52.1 12.4 108.6 19.4 167.2 20.6V18.5zM126.4 733.3c31.5-16.7 66.7-30.7 104.5-41.9-19.4-64.9-30.3-137.6-31.8-213.4H0c3.8 102.1 40.8 195.6 100.5 270.2 8.2-5.1 16.9-10.1 25.9-14.9zM123.7 775.1c65.7 70.3 153.2 120 251.7 138.4-7-4.3-13.9-9.2-20.8-14.7-30.9-24.7-58.6-59.8-82.1-104.2-11.5-21.7-21.7-45.1-30.6-69.9-35.9 10.6-69.2 23.9-99.1 39.6-6.6 3.5-13 7.1-19.1 10.8zM648.5 126.4c11.5 21.7 21.7 45.1 30.6 69.9 35.9-10.6 69.2-23.9 99.1-39.6 6.6-3.5 13-7.1 19.1-10.8-65.7-70.3-153.2-120-251.7-138.4 7 4.3 13.9 9.2 20.8 14.7C597.3 46.9 625 82 648.5 126.4z"/></svg>