<svg xmlns="http://www.w3.org/2000/svg" viewBox="0 0 52.998 52.998" enable-background="new 0 0 52.998 52.998"><path d="M51.935 9.958L42.948.97C42.168.19 40.673-.2 39.61.103L26.965 3.687c-1.062.302-2.168 1.407-2.47 2.47L20.91 18.8c-.3 1.064.088 2.558.87 3.34l.96.96L.09 45.946l7.084 7.02-.03.03 4.76-.595-.3-3.868.836-.843-.295.308 4.76-.596-.304-3.91.372-.374 4.94-.616-.314-4.05 8.21-8.282.955.955c.78.78 2.275 1.17 3.34.87l12.643-3.585c1.063-.303 2.17-1.408 2.47-2.47l3.585-12.645c.3-1.06-.088-2.556-.868-3.337zm-13.52 10.09c-3.07 0-5.558-2.488-5.558-5.557 0-3.07 2.488-5.557 5.558-5.557s5.56 2.488 5.56 5.558c-.003 3.07-2.49 5.56-5.56 5.56z" fill="#010002"/></svg>