<svg xmlns="http://www.w3.org/2000/svg" width="949.8" height="949.8" viewBox="0 0 949.8 949.8"><path d="M81.8 949.8H868c27.602 0 50-22.4 50-50v-180c0-27.6-22.398-50-50-50H81.8c-27.6 0-50 22.4-50 50v180c0 27.6 22.4 50 50 50zm80.5-179.9c22.1 0 40 17.9 40 40s-17.9 40-40 40-40-17.9-40-40 17.9-40 40-40zM81.8 614.9H868c27.602 0 50-22.4 50-50v-180c0-27.6-22.398-50-50-50H81.8c-27.6 0-50 22.4-50 50v180c0 27.6 22.4 50 50 50zM162.3 435c22.1 0 40 17.9 40 40s-17.9 40-40 40-40-17.9-40-40 17.9-40 40-40zM81.8 280H868c27.602 0 50-22.4 50-50V50c0-27.6-22.398-50-50-50H81.8c-27.6 0-50 22.4-50 50v180c0 27.6 22.4 50 50 50zm80.5-179.9c22.1 0 40 17.9 40 40s-17.9 40-40 40-40-17.9-40-40 17.9-40 40-40z"/></svg>