<svg xmlns="http://www.w3.org/2000/svg" width="485.211" height="485.21" viewBox="0 0 485.211 485.21"><path d="M394.235 333.585h-30.327c-33.495 0-60.653-27.158-60.653-60.654v-19.483c13.418-15.948 23.042-34.812 29.024-54.745.62-3.36 3.854-5.02 6.01-7.33 11.612-11.61 13.895-31.2 5.186-45.15-1.186-2.116-3.322-3.952-3.2-6.575 0-17.784.088-35.596-.024-53.366-.476-21.454-6.608-43.772-21.65-59.66-12.144-12.835-28.82-20.478-46.022-23.75-21.74-4.146-44.482-3.936-66.013 1.54-18.66 4.71-36.19 15.638-47.028 31.837-9.6 14.083-13.804 31.183-14.514 48.036-.266 18.094-.06 36.233-.116 54.37.413 3.632-2.667 6.09-4.058 9.095-8.203 14.88-4.592 35.155 8.59 45.978 3.343 2.308 3.97 6.515 5.18 10.142 5.748 17.917 15.282 34.487 27.335 48.925v20.138c0 33.497-27.157 60.655-60.65 60.655h-30.33S36.015 348.743 0 424.56v30.327c0 16.76 13.564 30.32 30.327 30.32H454.89c16.758 0 30.32-13.56 30.32-30.32V424.56c-36.01-75.81-90.975-90.975-90.975-90.975z"/></svg>