<svg xmlns="http://www.w3.org/2000/svg" width="399.999" height="399.999" viewBox="0 0 399.999 399.999"><path d="M366.684 24.972H33.316C14.946 24.972 0 39.917 0 58.29v217.27c0 18.372 14.946 33.318 33.316 33.318H140.73l-20.39 44.955c-2.104 4.643-1.708 10.037 1.054 14.32 2.76 4.286 7.51 6.874 12.608 6.874H266.018c8.284 0 15-6.715 15-15 0-2.493-.607-4.848-1.686-6.916L259.27 308.88h107.413c18.37 0 33.316-14.946 33.316-33.317V58.29c0-18.373-14.946-33.318-33.316-33.318zM370 275.562c0 1.83-1.488 3.316-3.316 3.316H33.316c-1.83 0-3.316-1.487-3.316-3.316V58.29c0-1.83 1.488-3.318 3.316-3.318h333.367c1.83 0 3.316 1.488 3.316 3.317V275.56zM72.84 162.757c9.433 1.062 18.353-2.362 24.63-8.564l81.92 29.438c.846 14.405 11.966 26.58 26.78 28.247 16.562 1.867 31.553-10.088 33.42-26.647.13-1.175.187-2.34.183-3.496l69.132-50.434c3.438 1.95 7.314 3.256 11.484 3.726 16.562 1.866 31.554-10.09 33.417-26.65 1.866-16.56-10.09-31.55-26.646-33.417-16.562-1.868-31.55 10.087-33.416 26.647-.6 5.302.226 10.438 2.16 15.04l-63.04 45.99c-4.818-5.847-11.817-9.912-19.923-10.826-11.48-1.29-22.202 4.06-28.323 12.98l-78.424-28.184c.02-.167.05-.33.067-.5 1.867-16.56-10.088-31.552-26.647-33.416-16.562-1.867-31.553 10.088-33.42 26.648-1.867 16.56 10.088 31.552 26.648 33.42zm240.28-58.967c.66-5.878 5.98-10.117 11.854-9.457 5.876.663 10.12 5.98 9.457 11.858-.662 5.876-5.98 10.118-11.855 9.456-5.876-.66-10.118-5.982-9.455-11.856zm-114.223 76.853c.662-5.874 5.982-10.117 11.856-9.454 5.877.66 10.12 5.98 9.458 11.855-.663 5.877-5.98 10.118-11.858 9.456-5.873-.662-10.116-5.98-9.455-11.857zM65.567 131.52c.664-5.875 5.984-10.117 11.86-9.455 5.876.663 10.117 5.98 9.455 11.858-.662 5.876-5.982 10.117-11.857 9.454-5.878-.66-10.12-5.98-9.457-11.856zM323.797 151.467c-1.494 0-3.008-.087-4.5-.253-3.19-.36-6.287-1.09-9.256-2.178l-60.835 44.382c-2.55 19.944-19.48 34.9-39.63 34.9-1.493 0-3.007-.083-4.497-.252-17.124-1.93-30.75-14.422-34.48-30.733l-71.17-25.576c-6.74 4.832-14.777 7.44-23.185 7.44h-.002c-1.492 0-3.004-.085-4.493-.25-10.39-1.174-19.4-6.254-25.75-13.604v98.396h308V137.664c-7.355 8.498-18.206 13.802-30.2 13.802z"/></svg>