<svg xmlns="http://www.w3.org/2000/svg" width="416.703" height="416.704" viewBox="0 0 416.703 416.704"><path d="M143.53 158.403h-.763c-2.803 0-5.29 1.796-6.17 4.455L124.654 198.9l-11.998-36.05c-.885-2.656-3.37-4.447-6.168-4.447h-1.1c-2.803 0-5.29 1.796-6.17 4.455L87.275 198.9l-11.998-36.05c-.885-2.656-3.37-4.447-6.168-4.447h-.765c-2.096 0-4.063 1.01-5.283 2.713s-1.545 3.89-.873 5.875l18.43 54.356c.894 2.637 3.37 4.41 6.155 4.41h.426c.03 0 .06-.004.09-.005.028.002.058.007.087.007h.344c2.79 0 5.27-1.78 6.16-4.426l12.085-35.877 12.027 35.87c.89 2.645 3.37 4.434 6.164 4.434h.424c.03 0 .06-.005.088-.006.03.002.06.007.088.007h.344c2.785 0 5.262-1.774 6.156-4.41l18.43-54.356c.674-1.983.35-4.17-.87-5.874s-3.19-2.713-5.285-2.713zM233.688 158.403h-.765c-2.803 0-5.288 1.796-6.17 4.455L214.81 198.9l-11.998-36.05c-.885-2.656-3.37-4.447-6.168-4.447h-1.1c-2.803 0-5.29 1.796-6.17 4.455L177.43 198.9l-11.997-36.05c-.885-2.656-3.37-4.447-6.168-4.447h-.764c-2.095 0-4.062 1.01-5.282 2.713-1.22 1.703-1.545 3.89-.873 5.875l18.432 54.356c.893 2.637 3.37 4.41 6.154 4.41h.427c.03 0 .06-.004.088-.005.03.002.06.007.088.007h.344c2.79 0 5.27-1.78 6.16-4.426l12.084-35.877 12.028 35.87c.89 2.645 3.37 4.434 6.165 4.434h.425c.028 0 .06-.005.088-.006.028.002.06.007.088.007h.344c2.785 0 5.262-1.774 6.156-4.41l18.43-54.356c.674-1.983.35-4.17-.87-5.874s-3.19-2.713-5.286-2.713zM323.844 158.403h-.766c-2.803 0-5.287 1.796-6.17 4.455l-11.94 36.043-12-36.05c-.884-2.656-3.368-4.447-6.167-4.447h-1.1c-2.804 0-5.29 1.796-6.17 4.455L267.587 198.9l-12-36.05c-.884-2.656-3.367-4.447-6.167-4.447h-.763c-2.098 0-4.063 1.01-5.283 2.713s-1.545 3.89-.873 5.875l18.434 54.356c.894 2.637 3.37 4.41 6.154 4.41h.426c.03 0 .06-.004.088-.005.03.002.06.007.09.007h.343c2.79 0 5.27-1.78 6.16-4.426l12.084-35.877 12.025 35.87c.89 2.645 3.37 4.434 6.164 4.434h.423c.03 0 .06-.005.09-.006.027.002.058.007.087.007h.344c2.785 0 5.262-1.774 6.156-4.41L330 166.99c.674-1.983.35-4.17-.87-5.874-1.224-1.703-3.19-2.713-5.286-2.713zM28.283 348.743V105.026h335.62v139.452c6.734-5.787 15.212-8.953 24.183-8.953 1.38 0 2.748.082 4.102.23V44.31c0-12.995-10.57-23.567-23.563-23.567H23.568C10.57 20.743 0 31.315 0 44.31V353.46c0 12.994 10.57 23.568 23.568 23.568h224.848c-5.428-8.517-9.375-18.062-11.44-28.283H28.282zM338.025 60.32c0-4.808 3.895-8.704 8.702-8.704h8.703c4.806 0 8.7 3.896 8.7 8.703v9.862c0 4.805-3.895 8.7-8.7 8.7h-8.703c-4.81 0-8.702-3.895-8.702-8.7V60.32zm-40.464 0c0-4.808 3.897-8.704 8.702-8.704h8.703c4.808 0 8.7 3.896 8.7 8.703v9.862c0 4.805-3.895 8.7-8.7 8.7h-8.703c-4.805 0-8.7-3.895-8.7-8.7V60.32zm-40.466 0c0-4.808 3.896-8.704 8.703-8.704h8.7c4.806 0 8.702 3.896 8.702 8.703v9.862c0 4.805-3.897 8.7-8.702 8.7h-8.7c-4.808 0-8.704-3.895-8.704-8.7V60.32zM416.703 285.536c0-4.586-1.785-8.896-5.03-12.14L398.83 260.55c-3.242-3.24-7.553-5.026-12.137-5.026s-8.896 1.785-12.14 5.028l-19.604 19.6c-10.47-7.505-23.304-11.927-37.17-11.927-35.272 0-63.867 28.596-63.867 63.868 0 35.27 28.595 63.867 63.868 63.867s63.868-28.598 63.868-63.867c0-1.43-.052-2.85-.146-4.255l30.166-30.166c3.248-3.24 5.035-7.552 5.035-12.136zm-18.97 3.816l-61.426 61.428c-1.295 1.295-3.05 2.02-4.88 2.02h-.003c-1.834 0-3.588-.728-4.883-2.02l-28.466-28.51c-2.69-2.696-2.688-7.065.006-9.76l5.48-5.48c2.692-2.692 7.06-2.694 9.754-.005l18.104 18.057 51.02-51.02c1.296-1.295 3.052-2.02 4.882-2.02s3.586.727 4.88 2.02l5.53 5.53c2.7 2.696 2.7 7.065.004 9.76z"/></svg>