<svg xmlns="http://www.w3.org/2000/svg" width="583.458" height="583.458" viewBox="0 0 583.458 583.458"><path d="M309.284 171.217H93.436c-15.333 0-27.77 12.438-27.77 27.77v356.7c0 15.333 12.437 27.772 27.77 27.772h215.85c15.335 0 27.77-12.44 27.77-27.772V198.986c-.005-15.333-12.438-27.77-27.772-27.77zM104.04 222.31c0-3.875 3.135-7.013 7.01-7.013H291.7c3.875 0 7.008 3.138 7.008 7.014v262.81c0 3.876-3.133 7.01-7.01 7.01H111.05c-3.875 0-7.008-3.134-7.008-7.01V222.31zm51.918 319.06c0 3.724-3.02 6.745-6.747 6.745h-47.88c-3.725 0-6.744-3.023-6.744-6.746v-11.83c0-3.722 3.02-6.745 6.744-6.745h47.88c3.726 0 6.748 3.023 6.748 6.746v11.83zm45.42 13.073c-10.5 0-18.99-8.492-18.99-18.982s8.492-18.99 18.99-18.99c10.478 0 18.99 8.5 18.99 18.99.003 10.49-8.51 18.983-18.99 18.983zm106.765-13.074c0 3.724-3.02 6.745-6.745 6.745h-47.88c-3.724 0-6.746-3.023-6.746-6.746v-11.83c0-3.722 3.02-6.745 6.747-6.745h47.88c3.725 0 6.745 3.023 6.745 6.746v11.83h-.002zM317.463 80.374c-10.746 0-19.457 8.71-19.457 19.458 0 10.745 8.71 19.458 19.457 19.458 21.644 0 41.994 8.427 57.296 23.73 15.297 15.305 23.723 35.646 23.723 57.287 0 10.747 8.71 19.458 19.458 19.458 10.744 0 19.458-8.71 19.458-19.458.01-32.026-12.467-62.14-35.122-84.8-22.66-22.658-52.776-35.133-84.813-35.133zM317.474 0c-10.747 0-19.458 8.71-19.458 19.458 0 10.745 8.71 19.458 19.458 19.458 89 0 161.402 72.404 161.402 161.393 0 10.746 8.71 19.457 19.458 19.457 10.744 0 19.457-8.71 19.457-19.458C517.79 89.855 427.924 0 317.475 0z"/></svg>