<?xml version="1.0" encoding="iso-8859-1"?>
<!-- Generator: Adobe Illustrator 18.1.1, SVG Export Plug-In . SVG Version: 6.00 Build 0)  -->
<svg version="1.1" id="Capa_1" xmlns="http://www.w3.org/2000/svg" xmlns:xlink="http://www.w3.org/1999/xlink" x="0px" y="0px"
	 viewBox="0 0 21.874 21.874" style="enable-background:new 0 0 21.874 21.874;" xml:space="preserve">
<g>
	<g>
		<g>
			<path style="fill:#010002;" d="M17.95,0.731c1.959,0,3.549,1.589,3.549,3.549S19.91,7.829,17.95,7.829S14.4,6.24,14.4,4.28
				C14.4,2.32,15.99,0.731,17.95,0.731L17.95,0.731z M17.95,1.364c-1.61,0-2.916,1.306-2.916,2.916s1.306,2.917,2.916,2.917
				s2.916-1.306,2.916-2.917C20.866,2.67,19.56,1.364,17.95,1.364z"/>
			<path style="fill:#010002;" d="M17.95,8.205c-2.164,0-3.925-1.76-3.925-3.924c0-2.164,1.761-3.924,3.925-3.924
				s3.924,1.76,3.924,3.924C21.874,6.444,20.114,8.205,17.95,8.205z M17.95,1.739c-1.401,0-2.541,1.14-2.541,2.541
				c0,1.402,1.14,2.542,2.541,2.542s2.541-1.14,2.541-2.542C20.491,2.879,19.352,1.739,17.95,1.739z"/>
		</g>
		<path style="fill:#010002;" d="M14.74,17.987l-8.264-5.162l0.186-0.314c0.285-0.483,0.436-1.04,0.436-1.607
			c0-0.566-0.151-1.123-0.437-1.607L6.477,8.981l8.271-5.167L14.78,4.45c0.085,1.616,1.367,2.906,2.982,2.999l0.354,0.021v6.934
			l-0.354,0.021c-1.586,0.093-2.867,1.357-2.979,2.941L14.74,17.987z M7.479,12.567l6.645,4.15c0.356-1.56,1.645-2.767,3.242-3.006
			V8.161c-1.627-0.241-2.921-1.473-3.255-3.065L7.479,9.239c0.243,0.518,0.37,1.087,0.37,1.664
			C7.848,11.482,7.721,12.05,7.479,12.567z"/>
		<g>
			<path style="fill:#010002;" d="M17.95,14.044c1.959,0,3.549,1.589,3.549,3.549s-1.589,3.549-3.549,3.549s-3.55-1.589-3.55-3.549
				C14.4,15.633,15.99,14.044,17.95,14.044L17.95,14.044z M17.95,14.676c-1.61,0-2.916,1.306-2.916,2.916s1.306,2.917,2.916,2.917
				s2.916-1.306,2.916-2.917S19.56,14.676,17.95,14.676z"/>
			<path style="fill:#010002;" d="M17.95,21.518c-2.164,0-3.925-1.76-3.925-3.924s1.761-3.924,3.925-3.924s3.924,1.76,3.924,3.924
				S20.114,21.518,17.95,21.518z M17.95,15.052c-1.401,0-2.541,1.14-2.541,2.541s1.14,2.542,2.541,2.542s2.541-1.141,2.541-2.542
				S19.352,15.052,17.95,15.052z"/>
		</g>
		<g>
			<path style="fill:#010002;" d="M3.924,7.355c1.96,0,3.549,1.589,3.549,3.549c0,1.959-1.589,3.549-3.549,3.549
				s-3.549-1.589-3.549-3.549S1.964,7.355,3.924,7.355L3.924,7.355z M3.924,7.988c-1.61,0-2.916,1.306-2.916,2.916
				s1.306,2.916,2.916,2.916s2.916-1.306,2.916-2.916S5.534,7.988,3.924,7.988z"/>
			<path style="fill:#010002;" d="M3.924,14.828C1.76,14.828,0,13.068,0,10.904C0,8.741,1.76,6.98,3.924,6.98
				c2.164,0,3.924,1.76,3.924,3.924C7.848,13.068,6.088,14.828,3.924,14.828z M3.924,8.363c-1.401,0-2.541,1.14-2.541,2.541
				s1.14,2.541,2.541,2.541s2.541-1.14,2.541-2.541S5.325,8.363,3.924,8.363z"/>
		</g>
	</g>
</g>
<g>
</g>
<g>
</g>
<g>
</g>
<g>
</g>
<g>
</g>
<g>
</g>
<g>
</g>
<g>
</g>
<g>
</g>
<g>
</g>
<g>
</g>
<g>
</g>
<g>
</g>
<g>
</g>
<g>
</g>
</svg>
