<?xml version="1.0" encoding="iso-8859-1"?>
<!-- Generator: Adobe Illustrator 16.0.0, SVG Export Plug-In . SVG Version: 6.00 Build 0)  -->
<!DOCTYPE svg PUBLIC "-//W3C//DTD SVG 1.1//EN" "http://www.w3.org/Graphics/SVG/1.1/DTD/svg11.dtd">
<svg version="1.1" id="Capa_1" xmlns="http://www.w3.org/2000/svg" xmlns:xlink="http://www.w3.org/1999/xlink" x="0px" y="0px"
	 width="921px" height="921px" viewBox="0 0 921 921" style="enable-background:new 0 0 921 921;" xml:space="preserve">
<g>
	<g>
		<path d="M648.5,794.6c-23.5,44.5-51.2,79.5-82.1,104.2c-6.801,5.5-13.7,10.3-20.801,14.7c98.5-18.4,186-68.1,251.7-138.4
			c-6.1-3.699-12.5-7.3-19.1-10.8c-29.8-15.8-63.101-29.1-99.101-39.6C670.2,749.4,660,772.9,648.5,794.6z"/>
		<path d="M478,660c62.4,1.2,122.7,8.8,178.3,22.3C674.9,620.5,685.4,550.8,686.8,478H478V660z"/>
		<path d="M478,902.5c22.8-3.5,45.1-13.9,66.6-31c27.2-21.7,51.7-53.1,73-93.3c10.301-19.4,19.5-40.4,27.601-62.601
			C593.1,703.2,536.6,696.2,478,695V902.5L478,902.5z"/>
		<path d="M231,229.6c-37.8-11.2-73-25.2-104.5-41.9c-9-4.8-17.7-9.7-26-14.9C40.8,247.4,3.8,340.9,0,443h199.2
			C200.7,367.2,211.6,294.5,231,229.6z"/>
		<path d="M820.5,172.8c-8.3,5.1-16.9,10.1-26,14.9c-31.5,16.7-66.7,30.7-104.5,41.9c19.4,64.9,30.3,137.6,31.8,213.4H921
			C917.2,340.9,880.2,247.4,820.5,172.8z"/>
		<path d="M376.4,871.5c21.399,17.1,43.8,27.5,66.6,31V695c-58.6,1.2-115.1,8.2-167.2,20.6C283.9,737.8,293.1,758.7,303.4,778.2
			C324.7,818.4,349.3,849.8,376.4,871.5z"/>
		<path d="M443,660V478H234.2c1.5,72.8,12,142.5,30.5,204.3C320.3,668.9,380.6,661.2,443,660z"/>
		<path d="M234.2,443H443V261c-62.4-1.2-122.7-8.8-178.3-22.3C246.2,300.5,235.6,370.2,234.2,443z"/>
		<path d="M721.8,478c-1.5,75.8-12.399,148.5-31.8,213.4C727.8,702.6,763,716.6,794.5,733.3c9,4.8,17.7,9.7,26,14.9
			C880.2,673.6,917.2,580,921,478H721.8L721.8,478z"/>
		<path d="M478,443h208.8c-1.5-72.8-12-142.5-30.5-204.3C600.7,252.2,540.4,259.8,478,261V443z"/>
		<path d="M478,18.5V226c58.6-1.2,115.1-8.2,167.2-20.6c-8.101-22.2-17.3-43.1-27.601-62.6c-21.3-40.2-45.8-71.6-73-93.3
			C523.1,32.4,500.8,22,478,18.5z"/>
		<path d="M123.7,145.9c6.1,3.7,12.5,7.3,19.1,10.8c29.8,15.8,63.1,29.1,99.1,39.6c8.9-24.8,19.1-48.2,30.6-69.9
			c23.5-44.5,51.2-79.5,82.1-104.2c6.801-5.5,13.7-10.3,20.801-14.7C276.9,25.9,189.4,75.6,123.7,145.9z"/>
		<path d="M443,18.5c-22.8,3.5-45.1,13.9-66.6,31c-27.2,21.7-51.7,53.1-73,93.3c-10.301,19.4-19.5,40.4-27.601,62.6
			C327.9,217.8,384.4,224.8,443,226V18.5z"/>
		<path d="M126.4,733.3c31.5-16.7,66.7-30.7,104.5-41.899C211.5,626.5,200.6,553.8,199.1,478H0c3.8,102.1,40.8,195.6,100.5,270.2
			C108.7,743.1,117.4,738.1,126.4,733.3z"/>
		<path d="M123.7,775.1c65.7,70.301,153.2,120,251.7,138.4c-7-4.3-13.9-9.2-20.801-14.7C323.7,874.1,296,839,272.5,794.6
			C261,772.9,250.8,749.5,241.9,724.7c-35.9,10.6-69.2,23.899-99.1,39.6C136.2,767.8,129.8,771.4,123.7,775.1z"/>
		<path d="M648.5,126.4c11.5,21.7,21.7,45.1,30.6,69.9c35.9-10.6,69.2-23.9,99.101-39.6c6.6-3.5,13-7.1,19.1-10.8
			C731.6,75.6,644.1,25.9,545.6,7.5c7,4.3,13.9,9.2,20.801,14.7C597.3,46.9,625,82,648.5,126.4z"/>
	</g>
</g>
<g>
</g>
<g>
</g>
<g>
</g>
<g>
</g>
<g>
</g>
<g>
</g>
<g>
</g>
<g>
</g>
<g>
</g>
<g>
</g>
<g>
</g>
<g>
</g>
<g>
</g>
<g>
</g>
<g>
</g>
</svg>
