<?xml version="1.0" encoding="iso-8859-1"?>
<!-- Generator: Adobe Illustrator 18.1.1, SVG Export Plug-In . SVG Version: 6.00 Build 0)  -->
<svg version="1.1" id="Capa_1" xmlns="http://www.w3.org/2000/svg" xmlns:xlink="http://www.w3.org/1999/xlink" x="0px" y="0px"
	 viewBox="0 0 52.998 52.998" style="enable-background:new 0 0 52.998 52.998;" xml:space="preserve">
<g>
	<g>
		<path style="fill:#010002;" d="M51.935,9.958l-8.987-8.987c-0.781-0.781-2.275-1.17-3.338-0.869L26.965,3.687
			c-1.062,0.302-2.168,1.407-2.47,2.47L20.91,18.801c-0.301,1.063,0.088,2.557,0.869,3.338l0.96,0.96L0.092,45.947l7.084,7.021
			l-0.029,0.03l4.76-0.596l-0.3-3.868l0.835-0.843l-0.295,0.307l4.76-0.596l-0.304-3.909l0.372-0.375l4.939-0.616l-0.313-4.05
			l8.209-8.282l0.955,0.955c0.781,0.781,2.275,1.17,3.339,0.869l12.644-3.584c1.063-0.303,2.17-1.408,2.471-2.471l3.584-12.644
			C53.104,12.234,52.715,10.739,51.935,9.958z M38.415,20.049c-3.069,0-5.558-2.489-5.558-5.558c0-3.07,2.488-5.558,5.558-5.558
			s5.559,2.488,5.559,5.558C43.972,17.56,41.485,20.049,38.415,20.049z"/>
	</g>
</g>
<g>
</g>
<g>
</g>
<g>
</g>
<g>
</g>
<g>
</g>
<g>
</g>
<g>
</g>
<g>
</g>
<g>
</g>
<g>
</g>
<g>
</g>
<g>
</g>
<g>
</g>
<g>
</g>
<g>
</g>
</svg>
