<?xml version="1.0" encoding="iso-8859-1"?>
<!-- Generator: Adobe Illustrator 18.1.1, SVG Export Plug-In . SVG Version: 6.00 Build 0)  -->
<svg version="1.1" id="Capa_1" xmlns="http://www.w3.org/2000/svg" xmlns:xlink="http://www.w3.org/1999/xlink" x="0px" y="0px"
	 viewBox="0 0 16 16" style="enable-background:new 0 0 16 16;" xml:space="preserve">
<g>
	<g>
		<path style="fill:#090509;" d="M15,1H1C0.448,1,0,1.448,0,2v9c0,0.552,0.448,1,1,1h4.999c-0.002,0.723-0.031,1.662-0.305,2H5.492
			C5.22,14,5,14.225,5,14.5S5.22,15,5.492,15h5.015C10.779,15,11,14.775,11,14.5S10.779,14,10.508,14h-0.201
			c-0.274-0.338-0.304-1.277-0.306-2H15c0.552,0,1-0.448,1-1V2C16,1.448,15.552,1,15,1z M15,10H1V2h14V10z"/>
	</g>
</g>
<g>
</g>
<g>
</g>
<g>
</g>
<g>
</g>
<g>
</g>
<g>
</g>
<g>
</g>
<g>
</g>
<g>
</g>
<g>
</g>
<g>
</g>
<g>
</g>
<g>
</g>
<g>
</g>
<g>
</g>
</svg>
