<?xml version="1.0" encoding="iso-8859-1"?>
<!-- Generator: Adobe Illustrator 16.0.0, SVG Export Plug-In . SVG Version: 6.00 Build 0)  -->
<!DOCTYPE svg PUBLIC "-//W3C//DTD SVG 1.1//EN" "http://www.w3.org/Graphics/SVG/1.1/DTD/svg11.dtd">
<svg version="1.1" id="Capa_1" xmlns="http://www.w3.org/2000/svg" xmlns:xlink="http://www.w3.org/1999/xlink" x="0px" y="0px"
	 width="949.8px" height="949.8px" viewBox="0 0 949.8 949.8" style="enable-background:new 0 0 949.8 949.8;" xml:space="preserve"
	>
<g>
	<g>
		<path d="M81.8,949.8H868c27.602,0,50-22.4,50-50v-180c0-27.6-22.398-50-50-50H81.8c-27.6,0-50,22.4-50,50v180
			C31.8,927.399,54.2,949.8,81.8,949.8z M162.3,769.899c22.1,0,40,17.9,40,40c0,22.101-17.9,40-40,40s-40-17.899-40-40
			C122.3,787.8,140.2,769.899,162.3,769.899z"/>
		<path d="M81.8,614.899H868c27.602,0,50-22.399,50-50v-180c0-27.6-22.398-50-50-50H81.8c-27.6,0-50,22.4-50,50v180
			C31.8,592.5,54.2,614.899,81.8,614.899z M162.3,435c22.1,0,40,17.899,40,40c0,22.1-17.9,40-40,40s-40-17.9-40-40
			C122.3,452.899,140.2,435,162.3,435z"/>
		<path d="M81.8,280H868c27.602,0,50-22.4,50-50V50c0-27.6-22.398-50-50-50H81.8c-27.6,0-50,22.4-50,50v180
			C31.8,257.6,54.2,280,81.8,280z M162.3,100.1c22.1,0,40,17.9,40,40c0,22.1-17.9,40-40,40s-40-17.9-40-40
			C122.3,118,140.2,100.1,162.3,100.1z"/>
	</g>
</g>
<g>
</g>
<g>
</g>
<g>
</g>
<g>
</g>
<g>
</g>
<g>
</g>
<g>
</g>
<g>
</g>
<g>
</g>
<g>
</g>
<g>
</g>
<g>
</g>
<g>
</g>
<g>
</g>
<g>
</g>
</svg>
