<?xml version="1.0" encoding="iso-8859-1"?>
<!-- Generator: Adobe Illustrator 16.0.0, SVG Export Plug-In . SVG Version: 6.00 Build 0)  -->
<!DOCTYPE svg PUBLIC "-//W3C//DTD SVG 1.1//EN" "http://www.w3.org/Graphics/SVG/1.1/DTD/svg11.dtd">
<svg version="1.1" id="Capa_1" xmlns="http://www.w3.org/2000/svg" xmlns:xlink="http://www.w3.org/1999/xlink" x="0px" y="0px"
	 width="485.211px" height="485.21px" viewBox="0 0 485.211 485.21" style="enable-background:new 0 0 485.211 485.21;"
	 xml:space="preserve">
<g>
	<path d="M394.235,333.585h-30.327c-33.495,0-60.653-27.158-60.653-60.654v-19.484c13.418-15.948,23.042-34.812,29.024-54.745
		c0.621-3.36,3.855-5.02,6.012-7.33c11.611-11.609,13.894-31.2,5.185-45.149c-1.186-2.117-3.322-3.953-3.201-6.576
		c0-17.784,0.089-35.596-0.023-53.366c-0.476-21.455-6.608-43.773-21.65-59.66c-12.144-12.836-28.819-20.479-46.022-23.75
		c-21.739-4.147-44.482-3.937-66.013,1.54c-18.659,4.709-36.189,15.637-47.028,31.836c-9.598,14.083-13.803,31.183-14.513,48.036
		c-0.266,18.094-0.061,36.233-0.116,54.371c0.413,3.631-2.667,6.088-4.058,9.094c-8.203,14.881-4.592,35.155,8.589,45.978
		c3.344,2.308,3.97,6.515,5.181,10.142c5.748,17.917,15.282,34.487,27.335,48.925v20.138c0,33.496-27.157,60.654-60.651,60.654
		H90.978c0,0-54.964,15.158-90.978,90.975v30.327c0,16.759,13.564,30.321,30.327,30.321h424.562
		c16.759,0,30.322-13.562,30.322-30.321V424.56C449.199,348.749,394.235,333.585,394.235,333.585z"/>
</g>
<g>
</g>
<g>
</g>
<g>
</g>
<g>
</g>
<g>
</g>
<g>
</g>
<g>
</g>
<g>
</g>
<g>
</g>
<g>
</g>
<g>
</g>
<g>
</g>
<g>
</g>
<g>
</g>
<g>
</g>
</svg>
