<?xml version="1.0" encoding="iso-8859-1"?>
<!-- Generator: Adobe Illustrator 16.0.0, SVG Export Plug-In . SVG Version: 6.00 Build 0)  -->
<!DOCTYPE svg PUBLIC "-//W3C//DTD SVG 1.1//EN" "http://www.w3.org/Graphics/SVG/1.1/DTD/svg11.dtd">
<svg version="1.1" id="Capa_1" xmlns="http://www.w3.org/2000/svg" xmlns:xlink="http://www.w3.org/1999/xlink" x="0px" y="0px"
	 width="399.999px" height="399.999px" viewBox="0 0 399.999 399.999" style="enable-background:new 0 0 399.999 399.999;"
	 xml:space="preserve">
<g>
	<g>
		<g>
			<path d="M366.684,24.972H33.316C14.946,24.972,0,39.917,0,58.289v217.272c0,18.371,14.946,33.317,33.316,33.317h107.413
				l-20.388,44.955c-2.105,4.643-1.709,10.037,1.053,14.321c2.761,4.285,7.51,6.873,12.608,6.873h131.996c0.006,0,0.013,0,0.02,0
				c8.284,0,15-6.715,15-15c0-2.493-0.607-4.848-1.686-6.916l-20.062-44.233h107.413c18.371,0,33.316-14.946,33.316-33.317V58.289
				C400,39.917,385.054,24.972,366.684,24.972z M370,275.562c0,1.829-1.488,3.316-3.316,3.316H235.998h-71.996H33.316
				c-1.829,0-3.316-1.487-3.316-3.316V58.289c0-1.829,1.488-3.317,3.316-3.317h333.367c1.829,0,3.316,1.488,3.316,3.317L370,275.562
				L370,275.562z"/>
			<path d="M72.841,162.757c9.432,1.062,18.352-2.362,24.63-8.564l81.918,29.438c0.847,14.404,11.967,26.578,26.782,28.246
				c16.561,1.867,31.552-10.088,33.418-26.647c0.132-1.175,0.188-2.34,0.184-3.496l69.132-50.434
				c3.438,1.951,7.314,3.256,11.484,3.726c16.563,1.866,31.555-10.089,33.418-26.649c1.866-16.561-10.089-31.552-26.646-33.418
				c-16.563-1.867-31.552,10.088-33.417,26.648c-0.599,5.302,0.226,10.438,2.161,15.04l-63.042,45.991
				c-4.817-5.848-11.816-9.913-19.922-10.827c-11.481-1.292-22.203,4.06-28.324,12.979l-78.424-28.184
				c0.021-0.167,0.05-0.331,0.067-0.5c1.867-16.561-10.088-31.552-26.647-33.416c-16.562-1.867-31.553,10.088-33.419,26.648
				C44.326,145.897,56.281,160.89,72.841,162.757z M313.12,103.79c0.66-5.878,5.979-10.117,11.854-9.457
				c5.876,0.663,10.12,5.98,9.457,11.858c-0.663,5.875-5.98,10.117-11.856,9.455C316.699,114.986,312.457,109.664,313.12,103.79z
				 M198.897,180.643c0.662-5.874,5.982-10.117,11.856-9.454c5.877,0.662,10.119,5.981,9.458,11.856
				c-0.664,5.877-5.982,10.118-11.859,9.456C202.479,191.838,198.236,186.521,198.897,180.643z M65.568,131.521
				c0.663-5.876,5.983-10.118,11.858-9.456c5.877,0.663,10.118,5.981,9.456,11.858c-0.662,5.876-5.982,10.117-11.857,9.454
				C69.147,142.716,64.906,137.396,65.568,131.521z"/>
			<path d="M323.797,151.467c-1.494,0-3.008-0.087-4.5-0.253c-3.189-0.36-6.287-1.09-9.256-2.178l-60.836,44.382
				c-2.551,19.944-19.48,34.901-39.629,34.901c-1.494,0-3.008-0.084-4.498-0.253c-17.124-1.929-30.749-14.422-34.479-30.733
				l-71.17-25.576c-6.74,4.832-14.778,7.441-23.186,7.441c0,0-0.001,0-0.002,0c-1.493,0-3.005-0.086-4.494-0.252
				c-10.389-1.173-19.401-6.253-25.749-13.603v98.396h308V137.665C346.642,146.163,335.791,151.467,323.797,151.467z"/>
		</g>
	</g>
</g>
<g>
</g>
<g>
</g>
<g>
</g>
<g>
</g>
<g>
</g>
<g>
</g>
<g>
</g>
<g>
</g>
<g>
</g>
<g>
</g>
<g>
</g>
<g>
</g>
<g>
</g>
<g>
</g>
<g>
</g>
</svg>
