<?xml version="1.0" encoding="iso-8859-1"?>
<!-- Generator: Adobe Illustrator 16.0.0, SVG Export Plug-In . SVG Version: 6.00 Build 0)  -->
<!DOCTYPE svg PUBLIC "-//W3C//DTD SVG 1.1//EN" "http://www.w3.org/Graphics/SVG/1.1/DTD/svg11.dtd">
<svg version="1.1" id="Capa_1" xmlns="http://www.w3.org/2000/svg" xmlns:xlink="http://www.w3.org/1999/xlink" x="0px" y="0px"
	 width="583.458px" height="583.458px" viewBox="0 0 583.458 583.458" style="enable-background:new 0 0 583.458 583.458;"
	 xml:space="preserve">
<g>
	<g>
		<g>
			<path d="M309.284,171.217H93.436c-15.333,0-27.769,12.438-27.769,27.769v356.702c0,15.332,12.436,27.771,27.769,27.771h215.851
				c15.334,0,27.769-12.439,27.769-27.771V198.986C337.051,183.653,324.618,171.217,309.284,171.217z M104.04,222.311
				c0-3.876,3.135-7.014,7.009-7.014h180.65c3.876,0,7.009,3.138,7.009,7.014v262.808c0,3.877-3.133,7.012-7.009,7.012h-180.65
				c-3.876,0-7.009-3.135-7.009-7.012V222.311L104.04,222.311z M155.958,541.369c0,3.725-3.021,6.746-6.747,6.746H101.33
				c-3.725,0-6.744-3.023-6.744-6.746v-11.828c0-3.723,3.019-6.746,6.744-6.746h47.881c3.725,0,6.747,3.023,6.747,6.746V541.369z
				 M201.377,554.443c-10.498,0-18.99-8.492-18.99-18.982s8.493-18.992,18.99-18.992c10.479,0,18.992,8.502,18.992,18.992
				C220.371,545.949,211.858,554.443,201.377,554.443z M308.143,541.369c0,3.725-3.021,6.746-6.745,6.746h-47.879
				c-3.725,0-6.747-3.023-6.747-6.746v-11.828c0-3.723,3.021-6.746,6.747-6.746H301.4c3.725,0,6.745,3.023,6.745,6.746v11.828
				H308.143z"/>
			<path d="M317.463,80.374c-10.746,0-19.457,8.71-19.457,19.458c0,10.745,8.711,19.458,19.457,19.458
				c21.644,0,41.994,8.427,57.296,23.731c15.298,15.304,23.724,35.645,23.724,57.286c0,10.747,8.711,19.458,19.458,19.458
				c10.743,0,19.457-8.711,19.457-19.458c0.009-32.026-12.467-62.141-35.122-84.801C379.615,92.849,349.5,80.374,317.463,80.374z"/>
			<path d="M317.474,0c-10.747,0-19.458,8.711-19.458,19.458c0,10.745,8.711,19.458,19.458,19.458
				c88.999,0,161.402,72.404,161.402,161.393c0,10.747,8.711,19.458,19.458,19.458c10.744,0,19.457-8.711,19.457-19.458
				C517.788,89.856,427.923,0,317.474,0z"/>
		</g>
	</g>
</g>
<g>
</g>
<g>
</g>
<g>
</g>
<g>
</g>
<g>
</g>
<g>
</g>
<g>
</g>
<g>
</g>
<g>
</g>
<g>
</g>
<g>
</g>
<g>
</g>
<g>
</g>
<g>
</g>
<g>
</g>
</svg>
